<?xml version="1.0" encoding="UTF-8"?>
<svg id="_Слой_1" data-name="Слой 1" xmlns="http://www.w3.org/2000/svg" viewBox="0 0 466 185">
  <defs>
    <style>
      .cls-1 {
        fill: #2e3192;
      }

      .cls-1, .cls-2, .cls-3, .cls-4, .cls-5, .cls-6, .cls-7, .cls-8, .cls-9, .cls-10 {
        stroke-width: 0px;
      }

      .cls-2 {
        fill: #d9e021;
      }

      .cls-3 {
        fill: #000;
      }

      .cls-4 {
        fill: #c1272d;
      }

      .cls-5 {
        fill: #00a99d;
      }

      .cls-6 {
        fill: #f7931e;
      }

      .cls-7 {
        fill: #ed1e79;
      }

      .cls-8 {
        fill: #009245;
      }

      .cls-9 {
        fill: #fff;
      }

      .cls-10 {
        fill: #93278f;
      }

      .cls-11 {
        fill: none;
        stroke: #000;
        stroke-miterlimit: 10;
        stroke-width: 3px;
      }
    </style>
  </defs>
  <rect class="cls-9" x="11" width="455" height="174"/>
  <polygon class="cls-3" points="0 11 11 0 11 174 466 174 455 185 0 185 0 11"/>
  <line class="cls-11" x1="33.5" y1="18.5" x2="33.5" y2="150.5"/>
  <polyline class="cls-11" points="26.5 25.5 26.5 157.5 123.5 157.5"/>
  <line class="cls-11" x1="193.5" y1="18.5" x2="193.5" y2="150.5"/>
  <polyline class="cls-11" points="186.5 25.5 186.5 157.5 283.5 157.5"/>
  <line class="cls-11" x1="345.5" y1="18.5" x2="345.5" y2="150.5"/>
  <polyline class="cls-11" points="338.5 25.5 338.5 157.5 353 157.5"/>
  <polygon class="cls-3" points="200.5 12.5 295.5 12.5 281 27 200.5 27 200.5 12.5"/>
  <polygon class="cls-3" points="200.5 64.56 243.31 64.56 228.38 79.49 200.5 79.49 200.5 64.56"/>
  <polygon class="cls-3" points="399.5 78.5 428.5 143.5 449.5 143.5 414.5 64 383 64 368.5 78.5 399.5 78.5"/>
  <path class="cls-3" d="M419.5,12.5c-1.99-.17-55,0-67.04,0v14.5h65.04c15.25,0,20.38,22.28,21,21.5,4-5,5-34-19-36Z"/>
  <path class="cls-3" d="M108.54,13c-1.98-.29-58.04,0-67.04,0v14.5h65.04c15.25,0,20.48,22.35,21,21.5,3.96-6.5,4.96-32.5-19-36Z"/>
  <path class="cls-3" d="M114.54,65c-1.97-.34-33.04,0-42.04,0l-14,14.5c23.04,0,23-.4,40,0,42,1,38.36,49.76,39,49,16-19,9-58-22.96-63.5Z"/>
  <g>
    <rect class="cls-4" x="256" y="174" width="7" height="11"/>
    <rect class="cls-6" x="249" y="174" width="7" height="11"/>
    <rect class="cls-2" x="242" y="174" width="7" height="11"/>
    <rect class="cls-8" x="235" y="174" width="7" height="11"/>
    <rect class="cls-5" x="228" y="174" width="7" height="11"/>
    <rect class="cls-1" x="221" y="174" width="7" height="11"/>
    <rect class="cls-10" x="214" y="174" width="7" height="11"/>
    <rect class="cls-7" x="207" y="174" width="7" height="11"/>
  </g>
</svg>