<?xml version="1.0" encoding="UTF-8"?>
<svg id="_Слой_2" data-name="Слой 2" xmlns="http://www.w3.org/2000/svg" viewBox="0 0 1200 200.73">
  <defs>
    <style>
      .cls-1 {
        fill: #000;
        stroke-width: 0px;
      }
    </style>
  </defs>
  <g id="_Слой_1-2" data-name="Слой 1">
    <g>
      <path class="cls-1" d="M0,200.73v-90.11c34.49,16.47,25.27,50.98,81.04,49.86,56.82-1.14,80.15-12.02,140.07-30.64,148.13-46.01,252.91-5.55,330.89,3.06,232.44,25.64,340.76,25.23,467.23-10.93,97.58-27.9,139.64-53.23,180.76-78.76v157.52H0Z"/>
      <path class="cls-1" d="M1170.9,19.55c.48,15.44-56.43,26.92-121.02,42.89-178.86,44.23-216.22,73.33-291.06,52.09-31.87-9.05-69.32-26.88-67.4-38.3,3.78-22.56,151.67,36.72,298.72-29.11,46.23-20.69,111.63-62.37,163.91-41.36,4.83,1.94,16.64,6.82,16.85,13.79Z"/>
      <path class="cls-1" d="M300.77,51.72c-.57-24.49-118.1-61.31-206.81-18.38-12.65,6.12-60.8,29.42-59.74,61.28.63,18.96,18.55,36.64,36.77,44.43,27.77,11.87,50.62-1.64,166.98-53.62,55.23-24.67,62.96-27.37,62.81-33.7Z"/>
    </g>
  </g>
</svg>