<?xml version="1.0" encoding="UTF-8"?>
<svg id="_Слой_2" data-name="Слой 2" xmlns="http://www.w3.org/2000/svg" viewBox="0 0 1200 167.38">
  <defs>
    <style>
      .cls-1 {
        fill: #000;
        stroke-width: 0px;
      }
    </style>
  </defs>
  <g id="_Слой_1-2" data-name="Слой 1">
    <g id="_Слой_1-2" data-name=" Слой 1-2">
      <g>
        <path class="cls-1" d="M378.9,94.97c-74.11-26.23-72.44-34.23-110.3-41.36-14.4-2.71-116.99-22.04-145.53,26.04-9.3,15.67-13.15,42.56,0,58.21,29.46,35.06,103.5-34.8,200.68-4.6,43.1,13.39,62.26,37.61,108.77,33.7,29.04-2.44,61.36-15.23,61.28-27.57-.09-13.21-37.23-16.93-114.89-44.43h0Z"/>
        <path class="cls-1" d="M1118.81,99.57c-4.03-16.64-88.57-8.17-93.45-7.66-54.02,5.64-133,24.84-131.74,41.36,1.28,16.82,85.9,33.87,159.32,9.19,30.99-10.42,68.7-31.2,65.87-42.89h0Z"/>
        <path class="cls-1" d="M1200,0v90.11c-34.49-16.47-77.5-31.49-133.27-30.37-56.82,1.14-82.55,18.15-142.47,36.77-148.13,46.01-278.96,31.58-356.94,22.97C334.88,93.84,297.03-8.59,170.56,27.57,72.98,55.47,41.12,131.99,0,157.52V0h1200Z"/>
      </g>
    </g>
  </g>
</svg>