<?xml version="1.0" encoding="UTF-8"?>
<svg id="_Слой_2" data-name="Слой 2" xmlns="http://www.w3.org/2000/svg" viewBox="0 0 94.42 59.91">
  <defs>
    <style>
      .cls-1 {
        fill: #000;
        stroke-width: 0px;
      }
    </style>
  </defs>
  <g id="_Слой_2-2" data-name=" Слой 2">
    <g id="_Слой_2-2" data-name=" Слой 2-2">
      <g>
        <g>
          <path class="cls-1" d="M69.96,12c-6.29,0-11.39,5.1-11.39,11.39s5.1,11.39,11.39,11.39,11.39-5.1,11.39-11.39-5.1-11.39-11.39-11.39h0Z"/>
          <path class="cls-1" d="M91.1,51.85c-6.84,10.27-28.75,10.44-38.12,2.14,1.28-1.13,2.39-2.38,3.31-3.76,1.98-2.97,5.67-8.49,4.48-14.39,1.05.59,1.71,1.22,1.87,1.37,1.62,1.07,4.16,2.38,7.32,2.44,1.79.04,4.45-.19,8.94-2.44,1.63-.81,2.44-2.44,6.51-2.44,5.69,0,8.02,4.66,8.13,4.88,2.44,4.88-.81,9.76-2.44,12.2Z"/>
        </g>
        <g>
          <path class="cls-1" d="M27,0c-7.73,0-14,6.27-14,14s6.27,14,14,14,14-6.27,14-14S34.73,0,27,0h0Z"/>
          <path class="cls-1" d="M18,31c-.43-.42-3.98-3.73-9-3-4.03.59-6.77,3.45-8,6-2.85,5.91,1.2,12.73,2,14,8.66,13.74,40.68,14.97,50,1,2-3,6-9,3-15-.14-.27-3-6-10-6-5,0-6,2-8,3-5.52,2.76-8.79,3.04-11,3-3.88-.08-7.01-1.69-9-3Z"/>
        </g>
      </g>
    </g>
  </g>
</svg>