<?xml version="1.0" encoding="utf-8"?>
<!-- Generator: Adobe Illustrator 24.1.1, SVG Export Plug-In . SVG Version: 6.00 Build 0)  -->
<svg version="1.1" id="Layer_1" xmlns="http://www.w3.org/2000/svg" xmlns:xlink="http://www.w3.org/1999/xlink" x="0px" y="0px"
	 viewBox="0 0 512 512" style="enable-background:new 0 0 512 512;" xml:space="preserve">
<g>
	<path d="M56.9,28.4v28.4h113.8v113.8H56.9h0l0-113.8v0V28.4V0C25.5,0,0,25.5,0,56.9v113.8c0,31.4,25.5,56.9,56.9,56.9l113.8,0
		c31.4,0,56.9-25.5,56.9-56.9V56.9c0-31.4-25.5-56.9-56.9-56.9H56.9V28.4z"/>
	<path d="M56.9,312.9v28.4h113.8v113.8H56.9h0l0-113.8v0V312.9v-28.4C25.5,284.5,0,309.9,0,341.3v113.8C0,486.5,25.5,512,56.9,512
		l113.8,0c31.4,0,56.9-25.5,56.9-56.9V341.3c0-31.4-25.5-56.9-56.9-56.9H56.9V312.9z"/>
	<path d="M341.3,312.9v28.4h113.8v113.8H341.3h0l0-113.8v0V312.9v-28.4c-31.4,0-56.9,25.5-56.9,56.9v113.8
		c0,31.4,25.5,56.9,56.9,56.9l113.8,0c31.4,0,56.9-25.5,56.9-56.9l0-113.8c0-31.4-25.5-56.9-56.9-56.9H341.3V312.9z"/>
	<path d="M312.9,142.2h170.7c15.7,0,28.4-12.7,28.4-28.4c0-15.7-12.7-28.4-28.4-28.4H312.9c-15.7,0-28.4,12.7-28.4,28.4
		C284.4,129.5,297.2,142.2,312.9,142.2"/>
	<path d="M369.8,28.4v170.7c0,15.7,12.7,28.4,28.4,28.4c15.7,0,28.4-12.7,28.4-28.4V28.4c0-15.7-12.7-28.4-28.4-28.4
		C382.5,0,369.8,12.7,369.8,28.4"/>
</g>
</svg>
