<?xml version="1.0" encoding="utf-8"?>
<!-- Svg Vector Icons : http://www.onlinewebfonts.com/icon -->
<!DOCTYPE svg PUBLIC "-//W3C//DTD SVG 1.1//EN" "http://www.w3.org/Graphics/SVG/1.1/DTD/svg11.dtd">
<svg version="1.1" xmlns="http://www.w3.org/2000/svg" xmlns:xlink="http://www.w3.org/1999/xlink" x="0px" y="0px" viewBox="0 0 256 256" enable-background="new 0 0 256 256" xml:space="preserve">
<metadata> Svg Vector Icons : http://www.onlinewebfonts.com/icon </metadata>
<g><g><g><path fill="#000000" d="M38.1,10.8C28,13.3,18.6,21.1,13.7,30.9c-1.7,3.3-2.7,6.4-3.2,9C7.6,57.2,20.6,79.7,38.3,88c13.3,6.2,28.1,5.2,46.2-3.3c10.3-4.8,18.5-10.5,26.8-18.5l5.1-5v21.7v21.7l-19.9,0.2l-19.9,0.2l-2.4,1.7c-1.3,0.9-2.9,2.8-3.7,4.1l-1.3,2.4v50.2v50.2l1.3,2.4c0.7,1.3,2.4,3.2,3.7,4.1l2.4,1.7h51.3h51.3l2.2-1.5c1.2-0.8,2.8-2.4,3.6-3.6l1.4-2l0.2-50.7l0.1-50.7l-1.3-2.5c-0.7-1.3-2.4-3.2-3.7-4.1l-2.4-1.7l-19.9-0.2l-19.9-0.2V82.9V61.2l4,4.1c11.7,12,28.1,21.4,43.9,25.2c20.3,5,39.4-3.1,50.6-21.4c11.2-18.2,10.1-34.7-3.3-48.2c-4.9-4.9-9.1-7.5-15.5-9.7c-2.8-0.9-4.8-1.1-21.3-1c-31.3,0.1-48,2.2-58.8,7.4c-6.5,3.2-9.4,6.6-11.1,13.6c-0.4,1.6-0.4,1.6-0.8-0.9c-1.8-11.3-14.2-17-42.6-19.3c-3.8-0.3-15.1-0.7-25.2-0.8C44.6,10,40.7,10.1,38.1,10.8z M57.1,51.2c0,9.9-0.1,18-0.2,18c-2,0-7.5-1.6-10-2.9c-8.3-4.4-15.2-17-13.2-23.7c0.8-2.9,4.6-7,7.5-8.4c1.8-0.8,3.6-1.1,9-1.1h6.8L57.1,51.2L57.1,51.2z M214.7,34.2c2.8,1.3,6.7,5.6,7.6,8.5c1.9,6.6-5.2,19.3-13.2,23.5c-2.7,1.4-7.6,2.9-9.6,2.9c-0.3,0-0.6-7-0.6-18v-18h6.8C211.1,33.2,212.9,33.4,214.7,34.2z M94.8,35.4c5.8,0.9,8.9,1.7,8.9,2.4c0,1.7-4.6,8.1-8.6,11.9c-4,3.9-11.6,9.5-13.7,10.4c-0.8,0.3-0.9-1-0.9-12.8V34.1l5.4,0.4C88.7,34.7,92.8,35.1,94.8,35.4z M175.6,47.4c0,15,0.6,14-6,9.5c-7.9-5.4-17.3-15.8-17.3-19.2c0-1.1,12.9-3.2,19.8-3.3l3.4-0.1V47.4z M163.4,187.2V211h-11.9h-11.9v-23.8v-23.8h11.9h11.9V187.2z"/><path fill="#000000" d="M16.9,140.9c-2.4,1.1-4.7,3.5-5.9,6.1c-1,2.2-1.1,4.5-1.1,45.5c0,28.8,0.2,43.9,0.6,45.3c0.8,3,3.9,6.2,7,7.3c2.2,0.7,5.7,0.9,21.7,0.9c13.5,0,19.8-0.2,21.4-0.7c3.9-1.2,8.1-6.5,8.1-10.4c0-0.4-1.8-0.6-5.8-0.6h-5.8v-47.1v-47.1H37.9C22.8,140.2,18.2,140.3,16.9,140.9z"/><path fill="#000000" d="M198.9,187.2v47.1h-5.8c-4.3,0-5.8,0.2-5.8,0.7c0,2,1.4,5.2,3.1,7.1c3.4,3.7,4.5,3.9,26.1,3.9c13.5,0,19.8-0.2,21.4-0.7c2.9-0.9,6.5-4.5,7.4-7.4c0.9-3,0.9-86.4,0.1-89.6c-0.7-2.6-3.3-5.6-6.1-7.1c-2-1-3.4-1.1-21.3-1.1h-19.1V187.2L198.9,187.2z"/></g></g></g>
</svg>